<?xml version="1.0" standalone="no"?>
<!DOCTYPE svg PUBLIC "-//W3C//DTD SVG 20010904//EN"
 "http://www.w3.org/TR/2001/REC-SVG-20010904/DTD/svg10.dtd">
<svg version="1.0" xmlns="http://www.w3.org/2000/svg"
 width="500.000000pt" height="500.000000pt" viewBox="0 0 500.000000 500.000000"
 preserveAspectRatio="xMidYMid meet">

<g transform="translate(0.000000,500.000000) scale(0.100000,-0.100000)"
fill="#000000" stroke="none">
<path d="M100 2482 c0 -1878 0 -1910 20 -1987 51 -201 207 -358 407 -409 54
-14 264 -16 1948 -16 2084 0 1941 -4 2070 63 85 44 203 165 243 247 61 126 62
138 62 656 l0 471 -1416 862 c-779 474 -1418 860 -1420 859 -1 -2 -4 -170 -5
-373 -1 -322 0 -378 15 -435 28 -102 72 -177 156 -260 85 -85 147 -120 264
-150 75 -19 111 -20 695 -20 576 0 619 -2 656 -19 49 -22 91 -69 105 -119 8
-25 10 -149 8 -369 l-3 -331 -30 -43 c-17 -24 -46 -52 -65 -64 -35 -20 -45
-20 -1308 -23 -872 -1 -1286 1 -1313 8 -45 12 -102 59 -127 104 -16 29 -17
132 -20 1361 l-2 1331 -464 282 c-255 155 -467 282 -470 282 -3 0 -6 -859 -6
-1908z"/>
</g>
</svg>
